<?xml version="1.0" standalone="no"?>
<!DOCTYPE svg PUBLIC "-//W3C//DTD SVG 20010904//EN"
 "http://www.w3.org/TR/2001/REC-SVG-20010904/DTD/svg10.dtd">
<svg version="1.0" xmlns="http://www.w3.org/2000/svg"
 width="700.000000pt" height="700.000000pt" viewBox="0 0 700.000000 700.000000"
 preserveAspectRatio="xMidYMid meet">
<metadata>
Created by potrace 1.11, written by Peter Selinger 2001-2013
</metadata>
<g transform="translate(0.000000,700.000000) scale(0.100000,-0.100000)"
fill="#000000" stroke="none">
<path d="M5527 6804 c-1 -1 -42 -5 -91 -8 -49 -4 -92 -9 -96 -11 -3 -2 -26 -6
-50 -10 -199 -29 -574 -160 -880 -309 -127 -61 -131 -69 -19 -31 41 14 126 39
189 55 496 124 846 63 1004 -175 44 -65 81 -160 92 -235 10 -64 11 -247 1
-305 -3 -22 -6 -48 -7 -58 0 -13 -19 -4 -87 42 -400 268 -855 443 -1288 496
-27 4 -61 8 -75 11 -161 26 -560 20 -760 -11 -19 -3 -53 -8 -75 -11 -287 -40
-722 -194 -995 -351 -94 -54 -122 -72 -210 -131 -490 -331 -880 -812 -1107
-1366 -42 -103 -107 -290 -118 -340 -2 -11 -13 -59 -25 -106 -30 -121 -56
-274 -66 -388 -3 -37 -7 -80 -9 -97 -7 -53 -6 -347 1 -442 l7 -93 -90 -137
c-113 -173 -223 -356 -299 -498 -183 -342 -330 -723 -359 -931 -3 -21 -8 -50
-12 -64 -12 -51 -11 -261 2 -327 45 -236 181 -386 401 -444 85 -22 276 -30
409 -17 109 11 375 71 375 84 0 3 -10 2 -21 -1 -26 -9 -253 -9 -289 0 -14 3
-36 7 -50 10 -215 39 -378 194 -441 420 -32 111 -33 360 -4 530 46 268 186
657 364 1012 42 85 61 108 61 75 0 -58 86 -351 152 -517 90 -225 263 -538 381
-685 7 -8 28 -35 47 -60 19 -25 39 -50 45 -56 5 -6 35 -41 65 -76 75 -89 105
-106 38 -21 -181 227 -357 588 -442 903 -69 256 -91 433 -91 715 l1 190 83
135 c74 119 179 277 290 435 132 190 409 552 534 700 95 112 97 115 90 115 -4
0 -18 -12 -31 -27 -13 -16 -58 -64 -100 -108 -74 -78 -218 -234 -262 -285 -12
-14 -36 -41 -54 -60 -75 -82 -333 -392 -426 -513 -41 -53 -77 -97 -81 -97 -6
0 61 272 86 349 41 121 95 248 161 378 314 620 867 1094 1516 1298 62 19 123
37 136 40 13 2 32 7 42 10 10 3 29 8 42 10 114 23 183 34 238 40 36 3 83 8
105 10 98 11 411 4 495 -10 19 -3 49 -8 67 -10 28 -3 68 -10 175 -30 118 -22
377 -112 533 -185 183 -86 415 -236 560 -363 l39 -34 -33 -64 c-18 -35 -56
-104 -84 -152 -29 -49 -63 -107 -76 -130 -91 -160 -420 -636 -558 -807 -6 -8
-60 -76 -119 -150 -59 -74 -134 -166 -167 -205 -131 -155 -153 -180 -167 -195
-8 -9 -51 -56 -95 -106 -224 -251 -415 -447 -737 -759 -74 -71 -157 -150 -184
-174 -27 -24 -71 -65 -99 -90 -27 -26 -117 -105 -200 -176 -82 -71 -152 -132
-155 -135 -23 -24 -155 -123 -165 -124 -8 0 -47 27 -89 62 l-75 63 -308 -305
-308 -305 56 -53 c309 -294 684 -521 1101 -666 158 -55 439 -122 578 -137 25
-3 56 -7 70 -10 46 -8 223 -18 335 -18 474 -1 920 102 1339 308 161 79 208
105 298 163 202 131 344 247 513 416 167 168 182 184 288 326 339 451 550
1002 594 1555 14 166 6 565 -12 635 -2 8 -6 37 -10 64 -21 171 -88 427 -162
625 -136 364 -370 740 -627 1006 -32 33 -29 29 14 -28 136 -179 273 -420 354
-620 59 -147 125 -366 140 -471 4 -21 8 -41 10 -45 2 -3 7 -35 11 -71 4 -36 8
-67 10 -70 2 -3 7 -48 11 -100 14 -162 8 -507 -10 -596 -2 -12 -7 -45 -11 -74
-7 -57 -8 -63 -24 -130 -5 -25 -12 -56 -14 -70 -9 -44 -56 -206 -83 -282 -276
-773 -879 -1366 -1644 -1615 -106 -34 -274 -75 -363 -88 -27 -3 -59 -8 -70
-11 -90 -18 -417 -25 -567 -11 -416 37 -820 182 -1180 423 -127 86 -136 93
-124 102 5 5 50 37 99 73 76 54 306 226 355 266 8 7 47 37 85 68 39 32 90 73
114 93 24 21 58 48 74 62 72 59 163 138 317 274 282 250 781 748 1030 1027 41
46 93 104 116 129 47 53 285 338 329 394 46 59 124 159 141 180 9 10 43 57 77
105 33 47 63 88 66 91 26 23 314 462 391 595 78 134 106 187 181 337 33 64 66
124 75 132 8 9 17 31 19 49 1 17 14 57 28 87 62 136 127 358 153 520 7 48 12
139 10 210 -3 137 -29 236 -82 323 -80 129 -214 210 -394 238 -61 9 -197 18
-203 13z"/>
</g>
</svg>
